<svg id="Layer_6" enable-background="new 0 0 64 64" height="512" viewBox="0 0 64 64" width="512" xmlns="http://www.w3.org/2000/svg"><path d="m38.923 34.923 16.473 16.473c1.031-1.078 1.825-2.313 2.362-3.638l-15.306-15.306c-1.425.669-2.624 1.569-3.529 2.471z" fill="#f0bc5e"/><path d="m31 54h18v2h-18z"/><circle cx="52" cy="58" r="1"/><path d="m21 2c-.691 0-1.354.054-2 .134v8.866h4v-8.866c-.646-.08-1.309-.134-2-.134z" fill="#f0bc5e"/><path d="m28 49h2v2h-2z"/><path d="m32 58h16v2h-16z"/><path d="m62.812 44.939-1.594-5.356c.264-.151.526-.332.78-.587 1.69-1.69.926-3.682 0-4.607l-6.387-6.387c-.926-.927-2.917-1.691-4.608 0-.902.902-1.102 1.889-.954 2.755-4.054-1.008-7.326.309-9.119 1.364-.93.547-1.749 1.194-2.454 1.864-.992-1.291-2.158-2.285-3.475-2.952v-.033h-.074c-1.315-.652-2.769-1-4.342-1h-2.585v-1.292c2.175-1.636 3.649-4.016 3.944-6.708h.556c1.93 0 3.5-1.794 3.5-4 0-.732-.185-1.409-.487-2h.487v-6h-2.076c-.63-4.502-5.449-9-12.924-9s-12.294 4.498-12.924 9h-2.076v6h.487c-.302.591-.487 1.268-.487 2 0 2.206 1.57 4 3.5 4h.556c.295 2.691 1.769 5.072 3.944 6.708v1.292h-2.584c-5.744 0-10.416 4.424-10.416 9.861v9.139h17v5 1 5h6v-2h-4v-2h5v-2h-1v-7h8v8h2v-15h-6.414l-5.586 5.586v8.414h-2v-9.243l6.757-6.757h9.243v17h2v-8h1.198l1.826 8.217 1.952-.434-2.174-9.783h-2.802v-6.996c.033-.595 1.552-2.844 4.219-4.315 2.19-1.208 5.635-2.159 9.786-.076l3.647 3.647c1.488 2.094 2.168 4.621 1.906 7.201-.287 2.819-1.655 5.359-3.852 7.151-2.011 1.641-5.398 2.388-7.697 2.388-.002 0-.005 0-.008 0l-.002 2h.01c2.73 0 6.558-.877 8.962-2.838.372-.303.718-.629 1.049-.967.046.693.322 1.319.76 1.805h-1.78v2h5v2h-4v2h6v-6h-.78c.48-.532.78-1.229.78-2 0-.755-.289-1.437-.751-1.965l.707-.891c.974-1.227 1.286-2.759.856-4.205zm-34.398-2.939h3.586v3h-6.586zm4.086-22h-.5v-4h.5c.813 0 1.5.916 1.5 2s-.687 2-1.5 2zm-1.369-12c.377.648.631 1.322.761 2h-2.892v-1c0-.552.449-1 1-1zm-10.131-5c3.635 0 6.605 1.265 8.541 3.046-1.436.223-2.541 1.457-2.541 2.954v1h-12v-1c0-1.497-1.105-2.731-2.541-2.954 1.936-1.781 4.906-3.046 8.541-3.046zm-10.131 5h1.131c.551 0 1 .448 1 1v1h-2.892c.13-.678.385-1.352.761-2zm-.869 12h-.5c-.813 0-1.5-.916-1.5-2s.687-2 1.5-2h.5zm-2-6v-2h26v2zm4 7v-5h18v5c0 4.411-4.038 8-9 8s-9-3.589-9-8zm14 8.896v.104 1c0 .756-.249 1.412-.662 1.924l-2.127-2.127c.985-.184 1.918-.495 2.789-.901zm-7.211.901-2.127 2.127c-.413-.512-.662-1.168-.662-1.924v-1-.104c.871.406 1.804.717 2.789.901zm-10.789 10.203h2v2h-2zm-2 6h-3v-7.139c0-2.409 1.168-4.565 3-6.008zm12 0h-10v-2h10zm-6-4v-2h2v2zm6 0h-2v-2h2zm0-4h-10v-6.317c1.045-.436 2.199-.683 3.416-.683h2.676c.378 2.017 1.891 3.53 3.908 3.908zm5-5h-1v5.929l-2 2v-7.929h-1c-.186 0-.363-.021-.537-.049l2.537-2.537 2.537 2.537c-.174.028-.351.049-.537.049zm10 2h-7.071l-1.929 1.929v-2.021c2.017-.378 3.53-1.892 3.908-3.908h2.676c.858 0 1.659.133 2.416.371zm3.763 0h-1.763v-2.651c.785.55 1.494 1.266 2.122 2.149-.125.168-.254.338-.359.502zm22.237 17c-.551 0-1-.448-1-1s.449-1 1-1 1 .448 1 1-.449 1-1 1zm1.39-5.1-.911 1.148c-.157-.025-.315-.048-.479-.048-.266 0-.519.046-.765.111.698-1.372 1.153-2.871 1.314-4.448.165-1.619.013-3.219-.42-4.738.035.007.072.006.108.013l1.659 5.572c.243.823.064 1.672-.506 2.39zm.193-10.317c-.756.756-1.444.321-1.78 0l-1.643-1.643-.462-.462-3.263-3.263-.234-.234-.786-.786c-.208-.209-.825-.954 0-1.779.31-.31.607-.419.875-.419.386 0 .707.229.905.419l6.387 6.387c.21.21.827.955.001 1.78z"/><path d="m20 20h2v2h-2z"/><path d="m21 27c1.654 0 3-1.346 3-3h-2c0 .552-.449 1-1 1s-1-.448-1-1h-2c0 1.654 1.346 3 3 3z"/><circle cx="27" cy="19" r="1"/><circle cx="15" cy="19" r="1"/><path d="m28 63c-2.757 0-5-2.243-5-5s2.243-5 5-5 5 2.243 5 5-2.243 5-5 5zm0-6c-.551 0-1 .449-1 1s.449 1 1 1 1-.449 1-1-.449-1-1-1z" fill="#f0bc5e"/><circle cx="28" cy="58" r="1"/><path d="m52 63c-2.757 0-5-2.243-5-5s2.243-5 5-5 5 2.243 5 5-2.243 5-5 5zm0-6c-.551 0-1 .449-1 1s.449 1 1 1 1-.449 1-1-.449-1-1-1z" fill="#f0bc5e"/></svg>