<?xml version="1.0" encoding="utf-8"?>
<!-- Generator: Adobe Illustrator 21.0.0, SVG Export Plug-In . SVG Version: 6.00 Build 0)  -->
<svg version="1.1" id="Layer_1" xmlns="http://www.w3.org/2000/svg" xmlns:xlink="http://www.w3.org/1999/xlink" x="0px" y="0px"
	 viewBox="0 0 120 120" style="enable-background:new 0 0 120 120;" xml:space="preserve">
<style type="text/css">
	.st0{fill:#FFFFFF;}
	.st1{fill:#6A7C85;}
	.st2{fill:#28AAE2;}
	.st3{fill:#FBBC43;}
</style>
<g>
	<g>
		<g>
			<rect x="2.3" y="5" class="st0" width="115.3" height="13.5"/>
			<path class="st1" d="M120,20.8H0V2.7h120V20.8z M4.7,16.2h110.6V7.4H4.7V16.2z"/>
		</g>
		<g>
			<line class="st0" x1="7.6" y1="11.7" x2="12" y2="11.7"/>
			<rect x="7.6" y="9.3" class="st1" width="4.4" height="4.7"/>
		</g>
		<g>
			<line class="st0" x1="15.2" y1="11.7" x2="19.6" y2="11.7"/>
			<rect x="15.2" y="9.3" class="st1" width="4.4" height="4.7"/>
		</g>
		<g>
			<line class="st0" x1="22.8" y1="11.7" x2="27.1" y2="11.7"/>
			<rect x="22.8" y="9.3" class="st1" width="4.4" height="4.7"/>
		</g>
		<g>
			<polygon class="st1" points="120,83.5 98.5,83.5 98.5,78.8 115.3,78.8 115.3,20.8 4.7,20.8 4.7,78.8 21.5,78.8 21.5,83.5 0,83.5 
				0,16.2 120,16.2 			"/>
		</g>
	</g>
	<rect x="9.4" y="25.5" class="st2" width="101.3" height="48.6"/>
	<g>
		<path class="st3" d="M78.4,53.7C70.6,52.3,64.1,49,60,45c-4.1,4-10.6,7.3-18.4,8.7c-4.9,0.9-9.5,0.9-13.6,0.3v26.4
			c0,20.2,13.5,29.1,32,34.5c18.5-5.4,32-14.3,32-34.5V54C87.9,54.6,83.2,54.6,78.4,53.7z"/>
		<path class="st1" d="M60,117.3l-0.7-0.2c-15.7-4.6-33.7-12.9-33.7-36.8V51.3l2.7,0.4c4,0.6,8.5,0.5,12.8-0.3
			c7-1.3,13.2-4.2,17.2-8.1l1.6-1.6l1.6,1.6c3.9,3.8,10.2,6.8,17.2,8.1c4.4,0.8,8.9,0.9,12.8,0.3l2.7-0.4v29.1
			c0,23.9-18,32.2-33.7,36.8L60,117.3z M30.3,56.6v23.7c0,16.2,8.9,25.9,29.7,32.1c20.8-6.2,29.7-15.8,29.7-32.1V56.6
			c-3.8,0.3-7.8,0.1-11.7-0.6c-7-1.3-13.4-4.1-17.9-7.9c-4.5,3.7-10.9,6.6-17.9,7.9C38.1,56.7,34.1,56.9,30.3,56.6z"/>
	</g>
	<circle class="st0" cx="60" cy="79.2" r="12.9"/>
	<g>
		<polyline class="st0" points="65.5,74.4 58.9,82.6 54.5,79.8 		"/>
		<polygon class="st1" points="59.4,85.7 53.3,81.8 55.8,77.9 58.4,79.5 63.6,72.9 67.3,75.8 		"/>
	</g>
</g>
</svg>
