<svg id="Layer_6" enable-background="new 0 0 64 64" height="512" viewBox="0 0 64 64" width="512" xmlns="http://www.w3.org/2000/svg"><g fill="#f0bc5e"><path d="m54.11 39.79-.11.21v15 7h-4v-23.7c1.46.3 2.84.81 4.11 1.49z"/><path d="m26 38.31v23.69h-4v-11-11-.26c1.24-.66 2.58-1.15 4-1.43z"/><path d="m21 16h34v4h-34z"/></g><path d="m54 16c0-8.271-7.178-15-16-15s-16 6.729-16 15h2c0-1.771.386-3.46 1.08-5h.92c1.654 0 3 1.346 3 3v2h2v-2c0-2.686-2.133-4.867-4.792-4.979 1.971-2.862 5.109-4.962 8.792-5.713v12.692h2v-12.953c.332-.022.662-.047 1-.047s.668.025 1 .047v12.953h2v-12.692c3.683.75 6.821 2.851 8.792 5.713-2.659.112-4.792 2.293-4.792 4.979v2h2v-2c0-1.654 1.346-3 3-3h.92c.694 1.54 1.08 3.229 1.08 5z"/><path d="m38 31c-.551 0-1-.449-1-1h-2c0 1.654 1.346 3 3 3s3-1.346 3-3h-2c0 .551-.449 1-1 1z"/><path d="m63 35v-18h-8v2h6v4h-2v2h2v4h-6v2h6v2h-12.723c1.468-1.407 2.573-3.109 3.18-5h1.043c1.93 0 3.5-1.57 3.5-3.5s-1.57-3.5-3.5-3.5h-.5v-1h-2v4.625c0 3.062-1.552 5.81-4 7.711v-.336c0-3.309-2.691-6-6-6h-1v-2h-2v2h-1c-3.309 0-6 2.691-6 6v.336c-2.448-1.901-4-4.649-4-7.711v-4.625h-2v1h-.5c-1.93 0-3.5 1.57-3.5 3.5s1.57 3.5 3.5 3.5h1.043c.608 1.891 1.712 3.593 3.18 5h-24.723v-6h2v-2h-2v-6h18v-2h-20v18h5v12c0 1.654 1.346 3 3 3h5v2h7v11h42v-10c0-8.822-7.178-16-16-16h-.219l-.5-2zm-11-10.375v-1.625h.5c.827 0 1.5.673 1.5 1.5s-.673 1.5-1.5 1.5h-.592c.057-.452.092-.91.092-1.375zm-28.5 1.375c-.827 0-1.5-.673-1.5-1.5s.673-1.5 1.5-1.5h.5v1.625c0 .465.035.923.092 1.375zm8.5 6c0-2.206 1.794-4 4-4h4c2.206 0 4 1.794 4 4v1.596c-1.768.887-3.813 1.404-6 1.404-2.196 0-4.249-.521-6.021-1.415zm6 5c2.304 0 4.474-.503 6.393-1.379l.447 1.841-6.84 3.42-6.835-3.418.459-1.836c1.915.871 4.079 1.372 6.376 1.372zm0 10c-2.71 0-5.06-1.551-6.223-3.809l1.045 1.045c.67.67 1.549 1.032 2.473 1.032.191 0 .385-.015.579-.047.85-.138 1.592-.564 2.126-1.202.534.638 1.277 1.064 2.126 1.202.194.032.387.047.579.047.924 0 1.802-.361 2.473-1.032l1.045-1.045c-1.163 2.258-3.513 3.809-6.223 3.809zm-6.936-7.35 5.594 2.797c-.223.431-.625.722-1.105.8-.488.08-.967-.076-1.317-.425zm13.872 0-3.172 3.172c-.35.349-.831.505-1.317.425-.48-.078-.882-.369-1.105-.8zm-15.217-4.65-.5 2h-.219c-2.592 0-5.174.641-7.468 1.854l-.275.146h-5.257v-4zm-20.719 13c-.551 0-1-.449-1-1v-12h6v4 1 8zm7 2v-9h5v9zm7-9.646c1.884-.898 3.899-1.354 6-1.354v1c0 4.624 3.507 8.441 8 8.941v2.059h-4v2h4v4h-4v2h4v2h-14zm32 20.646v-5h6v5zm6-8v1h-6v-12.473c3.622 2.533 6 6.728 6 11.473zm-14-14c2.149 0 4.178.501 6 1.37v20.63h-14v-2h4v-2h-4v-4h4v-2h-4v-2.059c4.493-.5 8-4.317 8-8.941z"/><path d="m5 29h15v2h-15z"/><path d="m7 25h4v2h-4z"/><path d="m12.988 25 .012 2c1.206 0 3-.799 3-3s-1.794-3-3-3h-8v2h7.988c.462.012 1.012.195 1.012 1s-.55.988-1.012 1z"/><circle cx="31" cy="24" r="1"/><circle cx="45" cy="24" r="1"/></svg>