<svg id="Layer_6" enable-background="new 0 0 64 64" height="512" viewBox="0 0 64 64" width="512" xmlns="http://www.w3.org/2000/svg"><path d="m62 36c-3.446 0-4.999-10.526-5-18 0-10.01-7.813-17-19-17s-19 6.99-19 17c0 .086-.022 8.629-1.969 13.695l-.067.175v.13h8.036v8.22c.77-.14 1.57-.22 2.39-.22h2.61v-1l1-3 .106-.825c-4.241-2.404-7.106-6.951-7.106-12.175v-4c10 0 14-6 14-6s4 6 14 6v4c0 5.294-2.942 9.893-7.278 12.271l.278.729 1 3v1h2.609c3.021 0 5.799 1.058 8.039 2.823 4.399-.91 6.198-5.245 6.281-5.452l.548-1.371z" fill="#f0bc5e"/><path d="m17 52h-8v-8h8z" fill="#f0bc5e"/><path d="m63 54c0-8.271-6.456-15-14.391-15h-1.555l-1.102-3.305c4.225-2.656 7.048-7.346 7.048-12.695v-5h-1c-9.294 0-13.016-5.331-13.168-5.555l-.832-1.248-.832 1.248c-.037.056-3.812 5.555-13.168 5.555h-1v5c0 2.943.864 5.681 2.333 8h-24.333v32h38.6c1.055 0 2.497-.565 3.105-2h20.295zm-44.637 3h-11.363v-20h13v19.065zm-7.363-22v-2h5v2zm11 23h11v3h-11zm14.878-14.443c-.23.593-.902 1.443-2.878 1.443-2.799 0-2.99-1.678-3-2.014v-2.368zm8.122-.557c0 .082-.034 2-3 2-1.973 0-2.648-.832-2.88-1.442l5.88-2.94zm-10 13h-9v-7h5.157c1.037 1.006 2.374 1.704 3.843 1.925zm-9-9v-2h3.082c.106.703.315 1.376.62 2zm3-6v2h-3v-1.909c.468-.054.934-.091 1.39-.091zm6 17h2v3h-2zm4-9v7h-2v-7h-1c-1.74 0-3.298-.95-4.196-2.343.607.212 1.328.343 2.196.343 1.994 0 3.246-.665 4-1.502.754.837 2.006 1.502 4 1.502.868 0 1.589-.131 2.196-.343-.898 1.393-2.456 2.343-4.196 2.343zm7.918-4h8.082v2h-8.703c.306-.624.515-1.297.621-2zm8.082-2.116v.116h-8v-2h1.609c2.34 0 4.522.696 6.391 1.884zm-10.223-4.391-6.777 3.389-6.777-3.389.611-1.834c1.884.854 3.967 1.341 6.166 1.341s4.282-.487 6.165-1.341zm-6.777-2.493c-5.397 0-10.034-3.307-11.997-8h5.997c.938 0 1.835-.448 2.4-1.2l1.799-2.399c.189-.252.488-.401.801-.401h2c.313 0 .612.149.8.399l1.801 2.401c.564.752 1.461 1.2 2.399 1.2h5.997c-1.963 4.693-6.6 8-11.997 8zm-13-16.02c7.323-.285 11.382-3.666 13-5.408 1.618 1.742 5.677 5.123 13 5.408v3.02c0 1.034-.134 2.035-.363 3h-6.637c-.313 0-.612-.149-.8-.399l-1.801-2.401c-.564-.752-1.461-1.2-2.399-1.2h-2c-.938 0-1.835.448-2.4 1.2l-1.799 2.4c-.189.251-.488.4-.801.4h-6.637c-.229-.965-.363-1.966-.363-3zm5.047 15.715-1.101 3.305h-1.556c-.458 0-.923.028-1.39.075v-7.113c1.108 1.48 2.478 2.747 4.047 3.733zm-6.047 20.305h-2v-21h-4v-2h6zm-21 5v-28h6v2h-4v24h9.859l-.876.5 2.628 1.5zm15.893-2h.107v-.061l1-.571v2.264l-1.983-1.132zm20.707 2h-.6v-3h.59c.424.01 1.41.175 1.41 1.5s-.986 1.49-1.4 1.5zm1.4-4.689v-5.387c1.469-.221 2.806-.919 3.843-1.925h10.157v10h-12.051c-.168-1.44-1.014-2.285-1.949-2.688zm20 2.689h-4v-14.538c2.453 2.377 4 5.767 4 9.538z"/><path d="m11.964 44.5h7.071v2h-7.071z" transform="matrix(.707 -.707 .707 .707 -27.634 24.287)"/><path d="m37 27h2v2h-2z"/><path d="m38 32c-.551 0-1-.448-1-1h-2c0 1.654 1.346 3 3 3s3-1.346 3-3h-2c0 .552-.449 1-1 1z"/><circle cx="30" cy="23" r="1"/><circle cx="46" cy="23" r="1"/></svg>