<svg id="Layer_6" enable-background="new 0 0 64 64" height="512" viewBox="0 0 64 64" width="512" xmlns="http://www.w3.org/2000/svg"><path d="m42 17v6c0 3.488-2.209 6.506-5.432 8h.432l1 3c3.06.089 6.31 1.181 9 2.828v-19.828z" fill="#f0bc5e"/><path d="m26 34 1-3h.432c-3.223-1.494-5.432-4.512-5.432-8v-6h-5v19.828c2.69-1.647 5.94-2.739 9-2.828z" fill="#f0bc5e"/><path d="m38.738 33.053-.589-1.766c2.925-1.799 4.851-4.843 4.851-8.287v-5h6v-6h-2.068c-.683-5.965-7.362-11-14.932-11s-14.249 5.035-14.932 11h-2.068v6h6v5c0 3.444 1.926 6.488 4.85 8.287l-.589 1.766c-7.044.536-15.261 5.938-15.261 11.947v10h27v3h2v-3h12c1.654 0 3-1.346 3-3v-7c0-6.009-8.217-11.411-15.262-11.947zm-11.738 4.293c.801.605 1.786 1.084 2.86 1.367-.194.18-.448.287-.711.287h-2.149zm2.149 3.654c.681 0 1.32-.232 1.851-.641v2.527c-1.234-.267-2.404-.991-3.157-1.886zm3.851-.641c.531.409 1.17.641 1.851.641h1.306c-.753.895-1.923 1.619-3.157 1.886zm1.14-1.645c1.074-.283 2.059-.763 2.86-1.368v1.654h-2.149c-.263 0-.518-.107-.711-.286zm10.788-26.714h-1.928v-1c0-1.302-.839-2.402-2-2.816v-2.25c2.134 1.611 3.597 3.748 3.928 6.066zm-5.928-3.816c-1.161.414-2 1.514-2 2.816v1h-2v-8.694c1.428.282 2.78.752 4 1.379zm0 2.816c0-.552.449-1 1-1s1 .448 1 1v1h-2zm-6-7.958v8.958h-2v-8.958c.332-.022.664-.042 1-.042s.668.02 1 .042zm-9 6.958c.551 0 1 .448 1 1v1h-2v-1c0-.552.449-1 1-1zm1-1.816v-3.5c1.22-.627 2.572-1.097 4-1.379v8.695h-2v-1c0-1.302-.839-2.402-2-2.816zm-2-2.25v2.25c-1.161.414-2 1.514-2 2.816v1h-1.928c.331-2.318 1.794-4.455 3.928-6.066zm-6 8.066h30v2h-30zm6 9v-5h18v5c0 4.411-4.038 8-9 8s-9-3.589-9-8zm9 10c1.541 0 3.008-.292 4.341-.815l.646 1.937c-.142 1.29-2.49 2.878-4.987 2.878s-4.845-1.588-4.986-2.878l.646-1.937c1.332.523 2.799.815 4.34.815zm-11 3.018v3.296c0 3.449-.936 6.208-2.707 7.979l-.293.293v1.414h-6v-4c0-3.423 4.122-7.21 9-8.982zm-9 14.982h6v2h-6zm19.171 2h-11.171v-4.6c1.964-2.15 3-5.28 3-9.087v-3.894c.664-.157 1.333-.282 2-.351v3.932c0 3.028 3.467 6 7 6s7-2.972 7-6v-3.932c.667.069 1.336.194 2 .351v3.894c0 3.05.67 5.661 1.945 7.687h-8.945c-1.654 0-3 1.346-3 3v2c0 .351.061.688.171 1zm2.829 0c-.551 0-1-.448-1-1v-2c0-.552.449-1 1-1h3v4zm5-4h2v4h-2zm13 3c0 .552-.449 1-1 1h-8v-4h9zm0-5h-6.551c-1.597-1.776-2.449-4.415-2.449-7.687v-3.296c4.878 1.772 9 5.559 9 8.982z"/><path d="m31 22h2v2h-2z"/><path d="m35 26h-2c0 .552-.449 1-1 1s-1-.448-1-1h-2c0 1.654 1.346 3 3 3s3-1.346 3-3z"/><circle cx="38" cy="21" r="1"/><circle cx="26" cy="21" r="1"/><path d="m38 63.202-4-2.667v-1.949l1.586-1.586h4.828l1.586 1.586v1.949z" fill="#f0bc5e"/></svg>