<svg id="Layer_6" enable-background="new 0 0 64 64" height="512" viewBox="0 0 64 64" width="512" xmlns="http://www.w3.org/2000/svg"><path d="m38.5 55h2.753l-4.377-5.799c.515-.934.784-2.027.784-3.209-.012-1.489-.487-2.964-1.334-4.149-1.378-1.943-3.734-3.023-6.139-2.817l-1.758.149 1.031 1.432c.668.927 1.765 2.473 1.767 2.476.285.399.396.882.312 1.356-.085.481-.36.903-.779 1.19-.854.594-2.041.391-2.644-.447 0 0-1.095-1.543-1.742-2.479l-.981-1.42-.744 1.558c-1.037 2.171-.815 4.731.576 6.678 1.555 2.192 4.329 3.392 6.826 3.018l3.2 4.68c.513-1.298 1.771-2.217 3.249-2.217z" fill="#f0bc5e"/><path d="m9 43h3.414l2.586-2.586v-4.828l-2.586-2.586h-3.414v2h-3v2h3v2h-3v2h3zm2-8h.586l1.414 1.414v3.172l-1.414 1.414h-.586z"/><path d="m42 28h-2c0 .551-.449 1-1 1s-1-.449-1-1h-2c0 1.654 1.346 3 3 3s3-1.346 3-3z"/><circle cx="45" cy="22" r="1"/><circle cx="33" cy="22" r="1"/><path d="m35.116 3.551.887 11.526 1.994-.153-.302-3.924h2.609l-.302 3.923 1.994.153.887-11.526c5.41 1.565 9.117 6.211 9.117 10.45h2c0-6.149-6.16-13-15-13s-15 6.851-15 13h2c0-4.239 3.707-8.885 9.116-10.449zm2.425 5.449-.154-2h3.225l-.154 2zm3.368-5.855-.143 1.855h-3.532l-.143-1.855c.622-.085 1.255-.145 1.909-.145s1.287.06 1.909.145z"/><path d="m11 12.414v-4.828l-2.586-2.586h-2.414v2h1.586l1.414 1.414v3.172l-1.414 1.414h-1.586v2h2.414z"/><path d="m29 9h4v2h-4z"/><path d="m45 9h4v2h-4z"/><path d="m11 26.414v-4.828l-2.586-2.586h-2.414v2h1.586l1.414 1.414v3.172l-1.414 1.414h-1.586v2h2.414z"/><path d="m55.104 36.93-9.104-2.678v-.839c2.904-1.435 5.026-3.726 5.738-6.413h.762c1.93 0 3.5-1.794 3.5-4s-1.57-4-3.5-4h-.5v-1h-2v7h-6.385c-.148 0-.289-.057-.39-.155l-1.329-2.688-.104-.166c-.476-.621-1.232-.991-2.023-.991h-1.538c-.791 0-1.547.37-2.024.991l-1.433 2.854c-.101.098-.241.155-.389.155h-6.385v-7h-2v1h-.5c-1.93 0-3.5 1.794-3.5 4s1.57 4 3.5 4h.762c.712 2.687 2.834 4.979 5.738 6.413v.839l-9.104 2.678c-4.649 1.367-7.896 5.707-7.896 10.552v.104l-.586-.586h-3.414v2h-5v2h5v2h-5v2h5v2h3.414l.586-.586v6.586h23.5 3.5 21v-15.518c0-4.845-3.247-9.185-7.896-10.552zm-16.604 17.07c-2.481 0-4.5 2.019-4.5 4.5 0 .925.282 1.784.762 2.5h-8.762v-10.582c-.28-.28-.544-.575-.775-.901-1.392-1.946-1.613-4.507-.576-6.678l.744-1.558.607.88v-4.06l6.647-1.955c.471.533 1.293 1.322 2.518 1.935 1.193.609 2.483.919 3.835.919 1.345 0 2.624-.302 3.795-.895 1.228-.611 2.08-1.416 2.563-1.958l6.642 1.955v15.898zm14-33c.813 0 1.5.916 1.5 2s-.687 2-1.5 2h-.5v-4zm-27 4c-.813 0-1.5-.916-1.5-2s.687-2 1.5-2h.5v4zm2.862 2h6.023c.79 0 1.546-.37 2.023-.991l1.433-2.854c.101-.098.242-.155.39-.155h1.538c.148 0 .289.057.39.155l1.329 2.688.104.166c.477.621 1.233.991 2.023.991h6.023c-1.226 3.445-5.524 6-10.638 6s-9.412-2.555-10.638-6zm10.638 8c1.771 0 3.46-.276 5-.771v.433c-.3.363-1.003 1.111-2.101 1.656-1.793.908-4.001.915-5.832-.021-1.099-.55-1.792-1.299-2.067-1.636v-.431c1.54.494 3.229.77 5 .77zm-25.414 20h-.586v-6h.586l1.414 1.414v3.172zm3.414-.586v-4.828-2.104c0-3.965 2.657-7.516 6.46-8.635l.54-.158v22.311h-7zm21.5 6.586c-1.378 0-2.5-1.121-2.5-2.5s1.122-2.5 2.5-2.5h11.5v5h-8zm22.5 0h-9v-5h2v-17.311l.54.158c3.804 1.119 6.46 4.67 6.46 8.635z"/><g fill="#f0bc5e"><path d="m1 1h6v62h-6z"/><path d="m23 14h32v4h-32z"/></g></svg>