<svg id="Layer_6" enable-background="new 0 0 64 64" height="512" viewBox="0 0 64 64" width="512" xmlns="http://www.w3.org/2000/svg"><g fill="#f0bc5e"><path d="m7.998 32.1 2.2 9.9h5.604l2.2-9.9z"/><path d="m48 32v2.294c0 2.491-1.882 4.221-4 4.706v13h12v-17.536c-2.364-1.437-5.178-2.381-8-2.464z"/><path d="m36 32v2.294c0 2.491 1.882 4.221 4 4.706v13h-12v-17.536c2.364-1.437 5.178-2.381 8-2.464z"/><path d="m28 11h28v4h-28z"/></g><path d="m9 57h2v2h-2z"/><path d="m13 51h2v2h-2z"/><path d="m21 49h2v2h-2z"/><path d="m17 55h2v2h-2z"/><path d="m29 57h2v2h-2z"/><path d="m25 53h2v2h-2z"/><path d="m41 20h2v2h-2z"/><path d="m39 24c0 1.654 1.346 3 3 3s3-1.346 3-3h-2c0 .551-.449 1-1 1s-1-.449-1-1z"/><circle cx="48" cy="19" r="1"/><circle cx="36" cy="19" r="1"/><path d="m31.869 8h1.131c.551 0 1 .449 1 1v2h2v-2c0-1.497-1.105-2.731-2.541-2.954 1.37-1.261 3.263-2.255 5.541-2.732v7.686h2v-7.961c.329-.021.66-.039 1-.039s.671.018 1 .039v7.961h2v-7.686c2.277.477 4.171 1.471 5.541 2.732-1.436.223-2.541 1.457-2.541 2.954v2h2v-2c0-.551.449-1 1-1h1.131c.562.967.869 1.992.869 3h2c0-4.809-4.97-10-13-10s-13 5.191-13 10h2c0-1.008.307-2.033.869-3z"/><path d="m63 43c0-5.652-6.958-11.39-14.261-11.946l-.589-1.767c2.037-1.253 3.588-3.111 4.343-5.287h1.007c1.93 0 3.5-1.794 3.5-4s-1.57-4-3.5-4h-.5v-1h-2v6c0 4.411-4.038 8-9 8s-9-3.589-9-8v-6h-2v1h-.5c-1.93 0-3.5 1.794-3.5 4s1.57 4 3.5 4h1.007c.755 2.176 2.306 4.034 4.343 5.287l-.585 1.756c-3.662.289-7.484 1.975-10.273 4.466.084-1.974.015-3.334.007-3.466l-.055-.943h-8.944v-9.702l6-6.343v-5.055c0-2.757-2.243-5-5-5h-8c-2.757 0-5 2.243-5 5v5.011l6 6.385v9.704h-9.038l.038 1.037c.021.551.561 13.315 5.974 19.227-.868 1.01-1.26 2.218-1.435 3.1l-.2.996c-.096.469-.508.81-.98.81h-.329c-1.671 0-3.03 1.359-3.03 3.03v3.7h40.618l-2.694-5.389c-.464-1.308-1.884-3.382-3.545-4.611h27.621zm-9.5-25c.813 0 1.5.916 1.5 2s-.687 2-1.5 2h-.556c.036-.329.056-.662.056-1v-3zm-23 4c-.813 0-1.5-.916-1.5-2s.687-2 1.5-2h.5v3c0 .338.02.671.056 1zm30.5 21v4h-4v-10.632c2.394 1.87 4 4.283 4 6.632zm-12.686-6h6.686v2h-8.541c.747-.505 1.398-1.175 1.855-2zm.686-3.93c2.077.223 4.123.928 5.927 1.93h-5.987c.028-.231.06-.46.06-.706zm-7-2.07c1.541 0 3.008-.292 4.341-.815l.539 1.618c-.618.702-2.243 2.197-4.88 2.197-2.642 0-4.26-1.49-4.88-2.196l.539-1.619c1.333.523 2.8.815 4.341.815zm-11.743 20c-.247-.19-.491-.384-.711-.608l-.546-.544v-8.848h10v10zm-1.257-12v-2h6.686c.457.825 1.108 1.495 1.855 2zm6.06-4h-5.916c1.826-1.019 3.857-1.708 5.856-1.928v1.222c0 .246.032.475.06.706zm-10.276 3.62c.63-.796 1.384-1.527 2.216-2.188v11.421l-.783-.781c-.709-.709-1.57-1.487-2.588-1.88-.08-.03-.167-.04-.25-.062.729-2.195 1.141-4.487 1.372-6.536zm-11.198-23.62h-1.268l-2.318-2.404v-1.596h6v1.586zm-1.586 2h2v3h-2zm-6-2.781v-4.219c0-1.654 1.346-3 3-3h8c1.654 0 3 1.346 3 3v4.259l-4 4.229v-3.074l2-2v-2.414c0-1.103-.897-2-2-2h-6c-1.103 0-2 .897-2 2v2.404l2 2.074v2.998zm6 7.781h2v9.1h-2zm11.027 11.1c.025 2.164-.111 7.649-1.838 12.213-.061.027-.124.041-.184.072l-1.327.659c-.111.018-.227.028-.383.031-.3.029-.571.004-.754-.072l-1.802-.721c-1.84-.731-3.906-.029-4.906 1.664l-1.09 1.811c-.363.605-.695 1.014-.985 1.229-.01.002-.053.014-.148.014-.349 0-.692.058-1.013.168-4.203-4.385-5.285-13.911-5.531-17.068zm14.025 25.218 1.33 2.682h-35.382v-1.7c0-.568.462-1.03 1.03-1.03h.33c1.418 0 2.654-1.013 2.94-2.414l.201-1.002c.201-1.011.633-1.874 1.273-2.486.052-.058.112-.101.172-.149.176-.141.412-.219.684-.219.481 0 .918-.128 1.283-.384.716-.527 1.225-1.297 1.544-1.83l1.094-1.817c.491-.833 1.543-1.188 2.448-.83l1.787.715c.604.251 1.26.254 1.604.216.254 0 .529-.031.816-.091l1.697-.807c.346-.176.731-.215 1.017-.108.662.255 1.354.895 1.884 1.425l3.323 3.313c.707.719 1.531 1.307 2.457 1.753.437.206.923.331 1.448.373l.88.069c1.313.116 3.588 2.675 4.14 4.321zm5.948-20.115v12.797h-2v-12.797l-.776-.178c-1.581-.362-3.17-1.631-3.215-3.646 1.134.826 2.793 1.621 4.991 1.621s3.857-.795 4.992-1.621c-.046 2.016-1.634 3.284-3.215 3.646zm2 2.797h10v10h-10zm12 10v-2h4v2z"/></svg>