<svg id="Layer_6" enable-background="new 0 0 64 64" height="512" viewBox="0 0 64 64" width="512" xmlns="http://www.w3.org/2000/svg"><g fill="#f0bc5e"><path d="m46 24v-2.395c0 .814-.08 1.612-.21 2.395z"/><path d="m18 24h.159c-.094-.655-.159-1.319-.159-2z"/><path d="m32 1c-11.187 0-19 6.991-19 17v6h1.153c-.093-.314-.153-.647-.153-1 0-1.657 1.119-3 2.5-3h1.5v-2c7 0 12-5 12-5l1 6c1.986 0 4-2 5-5 0 0 4 4 10 4v2h1.5c1.381 0 2.5 1.343 2.5 3 0 .353-.06.686-.153 1h1.153v-6c0-10.009-7.813-17-19-17z"/></g><path d="m32 31c-.552 0-1-.449-1-1h-2c0 1.654 1.346 3 3 3s3-1.346 3-3h-2c0 .551-.448 1-1 1z"/><circle cx="24" cy="23" r="1"/><circle cx="40" cy="23" r="1"/><path d="m42.782 36h-2.062l-.504-1.512c2.651-1.782 4.706-4.396 5.827-7.488h1.457c1.93 0 3.5-1.794 3.5-4s-1.57-4-3.5-4h-.5v-2h-1c-5.49 0-9.257-3.671-9.293-3.707l-1.145-1.144-.511 1.535c-.698 2.093-1.951 3.667-3.231 4.156l-1.153-6.921-1.374 1.374c-.047.047-4.782 4.707-11.293 4.707h-1v2h-.5c-1.93 0-3.5 1.794-3.5 4s1.57 4 3.5 4h1.365c.773 2.192 2.042 4.194 3.782 5.854.662.632 1.374 1.189 2.121 1.682l-.488 1.464h-2.062c-9.094 0-16.218 7.028-16.218 16v2c0 1.654 1.346 3 3 3h10.155l-.892 5.225 5.986.912 1.054-6.137h1.697c1.654 0 3-1.346 3-3h6c0 1.654 1.346 3 3 3h.67l.397 2.833 3.46 2.576 2.519-3.5-.267-1.909h11.221c1.654 0 3-1.346 3-3v-2c0-8.972-7.124-16-16.218-16zm-26.282-11c-.813 0-1.5-.916-1.5-2s.687-2 1.5-2h.5v1c0 1.021.102 2.024.299 3zm40.203 24.092c-.227-.055-.46-.092-.703-.092h-4v-7.731c2.367 1.964 4.054 4.684 4.703 7.823zm-24.073-14.107c-2.347.108-4.613-.406-6.63-1.459v-1.526c0-2.206 1.794-4 4-4h4c2.206 0 4 1.794 4 4v1.491c-1.618.866-3.432 1.403-5.37 1.494zm14.87-13.985c.813 0 1.5.916 1.5 2s-.687 2-1.5 2h-.877c.238-1.094.377-2.227.377-3.396v-.604zm-28.5 1v-3.031c4.7-.295 8.4-2.601 10.304-4.062l.849 5.093h.847c2.127 0 4.158-1.664 5.414-4.341 1.541 1.171 4.579 3.033 8.586 3.307v2.639c0 4.293-1.953 8.11-5 10.563v-.168c0-3.309-2.691-6-6-6h-1v-2h-2v2h-1c-3.309 0-6 2.691-6 6v.246c-.335-.263-.66-.541-.973-.839-2.596-2.478-4.027-5.819-4.027-9.407zm12.992 15.001c.243 0 .487-.006.731-.018 2.049-.096 3.982-.616 5.728-1.467l.536 1.607c-.067 2.148-1.823 3.877-3.987 3.877h-3.844l.001-.008-4.624-.702.067-.09c-.985-.739-1.551-1.858-1.587-3.08l.529-1.586c1.994.954 4.18 1.467 6.45 1.467zm-10.435 11.999.273-1.587 2.034.309-.218 1.278zm-3.4-4.168.633-3.696 10.053 1.528-.633 3.696zm4.935-6.832c.11.659.325 1.287.639 1.864l-6.582-1-1.307 7.64 4.009.609-.323 1.887h-5.528v-9.105c2.106-1.2 4.562-1.895 7.218-1.895zm-11.092 3.269v7.731h-4c-.243 0-.476.037-.703.092.649-3.139 2.336-5.859 4.703-7.823zm9.61 19.594-2.033-.309.606-3.554h2.091zm5.39-6.863c0 .552-.448 1-1 1h-18c-.552 0-1-.448-1-1v-2c0-.552.448-1 1-1h18c.552 0 1 .448 1 1zm2-2c0-1.654-1.346-3-3-3h-.326l.166-.977 4.01.609.964-5.632h4.186c2.967 0 5.431-2.167 5.91-5h1.873c2.656 0 5.112.695 7.218 1.895v9.105h-6.351l-.521-3.693 2.028-.32-.312-1.975-10 1.578.312 1.975 1.995-.315.395 2.795c-1.439.222-2.547 1.456-2.547 2.955zm10.559-3-.432-3.061 2.025-.32.477 3.381zm3.395 9.392-.862 1.199-1.159-.863-.243-1.728h2.07zm14.046-4.392c0 .552-.448 1-1 1h-18c-.552 0-1-.448-1-1v-2c0-.552.448-1 1-1h18c.552 0 1 .448 1 1z"/></svg>