<svg id="Layer_6" enable-background="new 0 0 64 64" height="512" viewBox="0 0 64 64" width="512" xmlns="http://www.w3.org/2000/svg"><path d="m28 11h28v4h-28z" fill="#f0bc5e"/><path d="m9 51h3.414l2.586-2.586v-4.828l-2.586-2.586h-3.414v2h-3v2h3v2h-3v2h3zm2-8h.586l1.414 1.414v3.172l-1.414 1.414h-.586z"/><path d="m11 24.414v-4.828l-2.586-2.586h-2.414v2h1.586l1.414 1.414v3.172l-1.414 1.414h-1.586v2h2.414z"/><path d="m11 36.414v-4.828l-2.586-2.586h-2.414v2h1.586l1.414 1.414v3.172l-1.414 1.414h-1.586v2h2.414z"/><path d="m11 12.414v-4.828l-2.586-2.586h-2.414v2h1.586l1.414 1.414v3.172l-1.414 1.414h-1.586v2h2.414z"/><path d="m45 25h-2c0 .551-.448 1-1 1s-1-.449-1-1h-2c0 1.654 1.346 3 3 3s3-1.346 3-3z"/><path d="m39 3.314v2.686h-2v2h2v3h2v-7.961c.329-.021.66-.039 1-.039s.671.018 1 .039v7.961h2v-3h2v-2h-2v-2.686c4.884 1.024 8 4.446 8 7.686h2c0-4.809-4.971-10-13-10s-13 5.191-13 10h2c0-3.24 3.116-6.662 8-7.686z"/><path d="m45 58v-4h15c1.654 0 3-1.346 3-3v-7.235c0-5.643-6.836-11.171-14.262-11.712l-.619-1.857c2.493-1.621 4.254-4.206 4.736-7.196h.645c1.93 0 3.5-1.794 3.5-4s-1.57-4-3.5-4h-.5-1-1v6h-6c0-1.654-1.346-3-3-3s-3 1.346-3 3h-6v-6h-1-1-.5c-1.93 0-3.5 1.794-3.5 4s1.57 4 3.5 4h.645c.482 2.99 2.243 5.575 4.736 7.196l-.62 1.858c-7.303.556-14.261 6.294-14.261 11.946v1h-4v2h8v2h4v2h7.142c.271 1.043.949 1.913 1.858 2.444v4.556h3v2c0 .352.072.686.184 1h-35.184v2h38 5c1.654 0 3-1.346 3-3v-1c0-.551.448-1 1-1h10v-2h-10c-1.654 0-3 1.346-3 3v1c0 .551-.448 1-1 1h-5c-.552 0-1-.449-1-1v-2zm16-7c0 .551-.448 1-1 1h-20c-1.103 0-2-.897-2-2s.897-2 2-2h21zm-16-8h1c.082 0 2 .034 2 3h-3zm4-8.933c6.203.63 12 5.209 12 9.698v2.235h-6v-2h-2v2h-3c0-3.955-2.616-5-4-5h-1-1-7.764l5.764-2.882 7 3.5zm-12 .801 3.011 2.008-3.011 1.506zm6.989 2.008 3.011-2.008v3.513zm9.511-19.876c.813 0 1.5.916 1.5 2s-.687 2-1.5 2h-.5v-4zm-24.5 2c0-1.084.687-2 1.5-2h.5v4h-.5c-.813 0-1.5-.916-1.5-2zm4.168 4h7.832v-2c0-.551.448-1 1-1s1 .449 1 1v2h7.832c-.802 3.982-4.455 7-8.832 7s-8.03-3.018-8.832-7zm8.832 9c1.536 0 2.997-.308 4.326-.86l.484 1.452-4.81 3.206-4.81-3.207.484-1.452c1.329.553 2.79.861 4.326.861zm-19 13v-1c0-4.511 5.895-9.269 12-9.923v6.923h-6v2h-4v2zm4 2v-2h2v2zm9.142 2h-5.142v-6h12v3h-3c-1.859 0-3.411 1.28-3.858 3zm3.858 5h3v2h-3z"/><path d="m1 1h6v62h-6z" fill="#f0bc5e"/></svg>