<svg id="Layer_6" enable-background="new 0 0 64 64" height="512" viewBox="0 0 64 64" width="512" xmlns="http://www.w3.org/2000/svg"><g fill="#f0bc5e"><path d="m21 52h6v5h-6z"/><path d="m27 46v-2.45c0-1.025-.799-2.55-3-2.55s-3 1.524-3 2.55v2.45z"/><path d="m18 12h28v4h-28z"/></g><path d="m23 57h2v6h-2z"/><path d="m38.738 31.054-.589-1.766c1.717-1.056 3.085-2.544 3.926-4.287h.8c2.274-.001 4.125-1.795 4.125-4.001 0-2.165-1.784-3.922-4-3.988v-1.012h-2v5c0 4.411-4.037 8-9 8s-9-3.589-9-8v-5h-2v1.012c-2.216.066-4 1.823-4 3.988 0 2.206 1.851 4 4.125 4h.8c.841 1.743 2.209 3.231 3.926 4.287l-.589 1.766c-7.304.557-14.262 6.295-14.262 11.947v2 1 4c0 1.654 1.346 3 3 3h14c1.654 0 3-1.346 3-3h22v-7c0-5.652-6.958-11.39-14.262-11.946zm6.262-10.054c0 1.103-.953 2-2.125 2h-.097c.145-.646.222-1.315.222-2v-1.988c1.113.062 2 .926 2 1.988zm-23.875 2c-1.172 0-2.125-.897-2.125-2 0-1.062.887-1.926 2-1.988v1.988c0 .685.077 1.354.222 2zm29.875 20v1h-4v-7.632c2.394 1.871 4 4.283 4 6.632zm-12-9.93c2.105.226 4.178.947 6 1.971v.959h-6.269c.164-.525.269-1.088.269-1.706zm-10 12.114c-.314-.112-.648-.184-1-.184h-9v-7h7.408c.716.802 1.628 1.396 2.592 1.745zm-1.671-9.393c-.204-.442-.329-.939-.329-1.497v-.676l2.561 1.28zm9.342 0-2.232-.893 2.561-1.28v.676c0 .558-.125 1.055-.329 1.497zm-4.671-4.791c1.541 0 3.008-.292 4.341-.815l.436 1.308-4.777 2.389-4.777-2.389.436-1.308c1.333.523 2.8.815 4.341.815zm-6.731 5h-6.269v-.959c1.822-1.024 3.895-1.745 6-1.971v1.224c0 .618.105 1.181.269 1.706zm-12.269 7c0-2.349 1.606-4.761 4-6.632v8.632h-4zm16 7c0 .552-.448 1-1 1h-14c-.552 0-1-.448-1-1v-3h15c.552 0 1 .448 1 1zm4-11.797v9.797h-2v-9.797l-.776-.178c-.513-.118-1.023-.341-1.486-.643l3.216-1.286.046.022.046-.023 3.216 1.286c-.463.303-.972.526-1.486.643zm2 1.542c.963-.349 1.876-.943 2.592-1.745h7.408v10h-2v-6h-6v6h-2zm6 8.255h-2v-4h2zm6 0v-2h4v2z"/><path d="m31 20h2v2h-2z"/><path d="m29 24c0 1.654 1.346 3 3 3s3-1.346 3-3h-2c0 .552-.448 1-1 1s-1-.448-1-1z"/><circle cx="38" cy="20" r="1"/><circle cx="26" cy="20" r="1"/><path d="m21.667 9h2.333v3h2v-5h-3.102c1.374-1.698 3.455-3.062 6.102-3.661v8.661h2v-8.957c.328-.023.658-.043 1-.043s.672.02 1 .043v8.957h2v-8.661c2.647.6 4.728 1.964 6.102 3.661h-3.102v5h2v-3h2.333c.432.977.667 1.997.667 3h2c0-5.29-4.971-11-13-11s-13 5.71-13 11h2c0-1.003.235-2.023.667-3z"/></svg>