<svg id="Layer_6" enable-background="new 0 0 64 64" height="512" viewBox="0 0 64 64" width="512" xmlns="http://www.w3.org/2000/svg"><path d="m8.555 48h11.89l-1.533-6h-8.824z" fill="#f0bc5e"/><path d="m25 8.942v2.058h2v8h2v-8h2v-6.454c1.268-.574 2.608-1.004 4-1.259v11.713h6v-11.713c1.392.255 2.732.686 4 1.259v6.454h2v8h2v-8h2v-2.058c2.475 2.792 4 6.324 4 10.058h2c0-9.589-8.878-18-19-18s-19 8.411-19 18h2c0-3.734 1.525-7.267 4-10.058zm4 .058h-2v-1.966c.631-.52 1.298-.997 2-1.428zm8-2h2v2h-2zm0 6v-2h2v2zm10-4v-3.395c.702.432 1.369.909 2 1.428v1.967zm-8-5.949v1.949h-2v-1.949c.333-.02.664-.051 1-.051s.667.031 1 .051z"/><path d="m46.746 41.076-.516-1.549c2.412-1.59 4.338-3.855 5.509-6.527h1.261c2.206 0 4-1.794 4-4v-6h-2v2.556c-.591-.344-1.268-.556-2-.556v-2h-2v3.821c-2.441-.482-6.448-1.738-7.03-4.063l-1.94.484c.938 3.751 6.445 5.152 8.826 5.588-.895 6.303-6.31 11.17-12.856 11.17s-11.961-4.867-12.856-11.17c2.38-.436 7.888-1.837 8.826-5.588l-1.94-.484c-.58 2.319-4.588 3.578-7.03 4.062v-3.82h-2v2c-.734 0-1.414.213-2.006.56l-.005-2.562-2 .004.011 6c.001 2.205 1.795 3.998 4 3.998h1.261c1.171 2.672 3.097 4.937 5.509 6.527l-.515 1.545c-3.324.203-6.423 1.082-8.902 2.53l-3.219-12.602h-5.268l-6.835 26.753 1.938.494 6.451-25.247h2.16l6.451 25.247.969-.247h2v-11h4.28c.745 2.669 2.926 4.918 5.72 5.776v8.224h-10v2h38v-7.112c0-8.1-6.796-14.229-16.254-14.812zm8.254-12.076c0 1.103-.897 2-2 2h-.558c.354-1.276.558-2.613.558-4 1.103 0 2 .897 2 2zm-32 2c-1.103 0-2-.897-2-2s.897-2 2-2c0 1.387.204 2.724.558 4zm37.953 24h-3.953v-7.911c2.298 2.069 3.722 4.804 3.953 7.911zm-7.953-10.446c.702.307 1.375.647 2 1.035v15.411h-2zm-6-1.471c1.411.112 2.747.37 4 .742v1.175h-4zm-9-1.083c2.312 0 4.495-.541 6.453-1.479l.547 1.642v.195c-1.184.514-4.11 1.642-7 1.642-2.88 0-5.813-1.13-7-1.643v-.194l.547-1.642c1.958.938 4.141 1.479 6.453 1.479zm-17.128 3.632c.655-.423 1.367-.798 2.128-1.123v9.452zm4.128-.632v-1.199c1.259-.361 2.601-.61 4-.719v1.918zm14 6.183v9.817h-2v-9.817l-.801-.163c-2.915-.592-5.199-3.237-5.199-6.02v-.479c1.588.622 4.269 1.479 7 1.479s5.412-.857 7-1.479v.479c0 2.783-2.284 5.428-5.199 6.02zm2 1.593c2.794-.858 4.975-3.108 5.72-5.776h4.28v14h-10zm16 8.224v-4h4v4z"/><path d="m35 35c0 1.654 1.346 3 3 3s3-1.346 3-3h-2c0 .552-.449 1-1 1s-1-.448-1-1z"/><circle cx="32" cy="29" r="1"/><circle cx="44" cy="29" r="1"/><path d="m37 30h2v2h-2z"/><g fill="#f0bc5e"><path d="m18 19h40v5h-40z"/><path d="m2 57h25v6h-25z"/></g></svg>