<svg id="Layer_6" enable-background="new 0 0 64 64" height="512" viewBox="0 0 64 64" width="512" xmlns="http://www.w3.org/2000/svg"><path d="m27.574 37.474-4.967-1.215-1.237-4.778-4.367 2.526-4.363-2.532-1.244 4.775-4.842 1.177 2.241 4.573h8.205v7.828l4.384 2.032 1.214-4.661 4.969-1.208-2.624-4.261z" fill="#f0bc5e"/><path d="m8 45h2v2h-2z"/><path d="m12 45h2v6h-2z"/><path d="m8 51h2v2h-2z"/><path d="m58 56c-1.654 0-3 1.346-3 3v1c0 .551-.449 1-1 1h-3.171c-.267 0-.519-.104-.708-.293l-1.107-1.107 1.367-1.367-1.69-1.859 11.684-1.441c1.629-.195 2.798-1.693 2.603-3.347l-.252-2.005-.888-5.876c-.501-3.318-3.038-5.988-6.295-6.641l-8.543-1.869v-1.959c4.091-1.605 7-5.583 7-10.236v-2h2c1.103 0 2-.897 2-2v-4c0-1.103-.897-2-2-2h-2v-1c0-6.065-4.935-11-11-11h-6c-6.065 0-11 4.935-11 11v1h-2c-1.103 0-2 .897-2 2v4c0 1.103.897 2 2 2h2v2c0 4.653 2.909 8.631 7 10.236v1.962l-8.217 1.826.434 1.952 7.783-1.73v6.339l-2.586-2.585h-3.414v2h2.586l5.4 5.4-1.4 1.4 5.2 5.2h-14.786v-2h-6v-12h-14v14h-3v2h13v2h-13v2h13v2h10v-2h20.786l1.414 1.414 1.4-1.4 1.107 1.107c.566.567 1.32.879 2.122.879h3.171c1.654 0 3-1.346 3-3v-1c0-.551.449-1 1-1h5v-2zm2.993-4.173c.065.554-.319 1.056-.859 1.121l-16.814 2.073c-.075.011-.154.009-.253-.007-.425-.071-.764-.431-.821-.863l-.238-1.977c-.049-.417.162-.828.516-1.019.102-.054.213-.087.343-.103l4.352-.538 13.404-1.467zm-23.192-12.845-2.801 1.4v-2.776zm7.199 1.4-2.726-1.363 2.726-1.388zm0 2.236v1.382h-4v-3.382zm-10 0 4-2v3.382h-4zm12 3.382v-8.758l7 1.531v8.987l-7.013.767-4.362.54c-.323.039-.628.135-.919.272l-3.506-3.339zm12.861-1.997.463 3.065-4.324.473v-8.274c2.024.741 3.531 2.55 3.861 4.736zm-3.861-29.003v4h-2v-4zm-32 4v-4h2v4zm4 4v-11c0-1.053.191-2.06.525-3h7.475v-2h-6.478c1.617-2.41 4.365-4 7.478-4h6c4.962 0 9 4.038 9 9v11c0 4.962-4.038 9-9 9v-10h-2v10h-2v-10h-2v10c-4.962 0-9-4.038-9-9zm9 11h6c.684 0 1.35-.071 2-.191v1.578l-4.902 2.495-5.098-2.505v-1.568c.65.12 1.316.191 2 .191zm-1.586 12h1.972l-.986.986zm2.403 2.397 2.477 2.359c-.237.502-.34 1.07-.272 1.654l.137 1.134-3.745-3.744zm-31.817 6.603v-12h10v10h-2v2zm16 6h-6v-6h6zm2-2v-2h16.786l2 2zm19.614-2 2.647-.326 1.358 1.494-1.419 1.418z"/><path d="m38 7h10v2h-10z"/><path d="m50 23h-20v-12h20z" fill="#f0bc5e"/></svg>